<svg width="153" height="223" viewBox="0 0 153 223" fill="none" xmlns="http://www.w3.org/2000/svg">
<path d="M139.652 184.894C138.651 184.672 137.649 184.561 136.425 184.561H117.952V138.893V137.56V128.782V127.67V66.7797H111.164L107.047 79.3356C104.487 87.1137 99.5909 91.6693 92.3576 92.7805C90.0207 93.2249 87.0161 93.3361 83.5663 93.3361H80.0053V127.782V128.559V137.337V138.893V184.561H46.5095V188.45H143.436C143.436 184.672 142.212 185.228 139.652 184.894Z" fill="white"/>
<path d="M77.2233 132.004H5.78051L4 128.226C11.2333 122.337 18.1328 116.337 24.5871 110.003C46.5096 88.6692 56.3024 64.2241 65.2049 36.6677C69.8787 21.5562 72.6608 13.3337 73.4398 11.7781C77.3346 4.00012 84.1228 0 93.693 0C96.4751 0 99.0346 0.333343 101.594 0.888915C111.164 3.44454 115.949 9.44472 115.949 19.1117C115.949 27.6675 110.274 38.4456 98.9232 51.3348C88.1289 63.8907 72.2157 83.3358 39.8327 109.67C29.4835 118.115 21.9163 124.226 17.2425 128.115L77.2233 128.448V132.004Z" fill="white"/>
<g opacity="0.8">
<path d="M8.54389 216.24C8.22389 218.24 7.14389 219.24 5.30388 219.24C4.26388 219.24 3.47988 218.936 2.95188 218.328C2.43988 217.72 2.18388 216.904 2.18388 215.88V209.472H0.431885V208.344H2.18388V204.888H3.50388V208.344H7.75188V209.472H3.50388V215.736C3.50388 216.44 3.64789 217.008 3.93588 217.44C4.22389 217.856 4.72789 218.064 5.44789 218.064C5.91189 218.064 6.32788 217.928 6.69588 217.656C7.06388 217.368 7.33589 216.784 7.51189 215.904L8.54389 216.24Z" fill="white"/>
<path d="M21.8701 219H16.5901V217.896H18.5821V212.592C18.5821 211.376 18.3261 210.528 17.8141 210.048C17.3021 209.552 16.6541 209.304 15.8701 209.304C14.8941 209.304 14.0861 209.648 13.4461 210.336C12.8061 211.024 12.4701 211.768 12.4381 212.568V217.896H14.4061V219H9.15007V217.896H11.1181V203.592H9.15007V202.488H12.4381V210.36C12.8061 209.672 13.3101 209.128 13.9501 208.728C14.6061 208.328 15.3741 208.128 16.2541 208.128C17.3101 208.128 18.1821 208.456 18.8701 209.112C19.5581 209.768 19.9021 210.824 19.9021 212.28V217.896H21.8701V219Z" fill="white"/>
<path d="M32.3026 216.024C32.1426 216.92 31.6946 217.68 30.9586 218.304C30.2226 218.928 29.2306 219.24 27.9826 219.24C26.4946 219.24 25.3026 218.76 24.4066 217.8C23.5106 216.84 23.0626 215.512 23.0626 213.816C23.0626 212.152 23.4946 210.792 24.3586 209.736C25.2226 208.664 26.3826 208.128 27.8386 208.128C29.2946 208.128 30.3826 208.608 31.1026 209.568C31.8386 210.512 32.2066 211.592 32.2066 212.808C32.2066 213.16 32.1666 213.56 32.0866 214.008H24.4546C24.4866 215.288 24.8146 216.288 25.4386 217.008C26.0626 217.712 26.9426 218.064 28.0786 218.064C29.7586 218.064 30.7986 217.296 31.1986 215.76L32.3026 216.024ZM30.8146 212.904C30.8946 212.056 30.6866 211.248 30.1906 210.48C29.6946 209.696 28.8866 209.304 27.7666 209.304C26.6946 209.304 25.9026 209.664 25.3906 210.384C24.8946 211.104 24.5906 211.944 24.4786 212.904H30.8146Z" fill="white"/>
<path d="M48.5044 222.144H47.1604V218.16H39.6244L39.4564 216.984L45.2884 206.496H48.5044V216.984H51.0724L50.8804 218.16H48.5044V222.144ZM47.1604 216.984V207.696H45.9124L40.8004 216.984H47.1604Z" fill="white"/>
<path d="M60.2704 216.24C59.9504 218.24 58.8704 219.24 57.0304 219.24C55.9904 219.24 55.2064 218.936 54.6784 218.328C54.1664 217.72 53.9104 216.904 53.9104 215.88V209.472H52.1584V208.344H53.9104V204.888H55.2304V208.344H59.4784V209.472H55.2304V215.736C55.2304 216.44 55.3744 217.008 55.6624 217.44C55.9504 217.856 56.4544 218.064 57.1744 218.064C57.6384 218.064 58.0544 217.928 58.4224 217.656C58.7904 217.368 59.0624 216.784 59.2384 215.904L60.2704 216.24Z" fill="white"/>
<path d="M73.5966 219H68.3166V217.896H70.3086V212.592C70.3086 211.376 70.0526 210.528 69.5406 210.048C69.0286 209.552 68.3806 209.304 67.5966 209.304C66.6206 209.304 65.8126 209.648 65.1726 210.336C64.5326 211.024 64.1966 211.768 64.1646 212.568V217.896H66.1326V219H60.8766V217.896H62.8446V203.592H60.8766V202.488H64.1646V210.36C64.5326 209.672 65.0366 209.128 65.6766 208.728C66.3326 208.328 67.1006 208.128 67.9806 208.128C69.0366 208.128 69.9086 208.456 70.5966 209.112C71.2846 209.768 71.6286 210.824 71.6286 212.28V217.896H73.5966V219Z" fill="white"/>
<path d="M89.3695 215.52C89.2095 216.448 88.7855 217.304 88.0975 218.088C87.4255 218.856 86.3935 219.24 85.0015 219.24C83.5455 219.24 82.3935 218.76 81.5455 217.8C80.6975 216.84 80.2735 215.52 80.2735 213.84C80.2735 212.928 80.4415 212.032 80.7775 211.152C81.1135 210.272 81.6335 209.552 82.3375 208.992C83.0575 208.416 83.9775 208.128 85.0975 208.128C86.5535 208.128 87.7455 208.512 88.6735 209.28L89.0575 211.656L87.9535 211.8L87.5455 210C86.8895 209.536 86.0735 209.304 85.0975 209.304C83.8335 209.304 82.9455 209.76 82.4335 210.672C81.9375 211.568 81.6895 212.592 81.6895 213.744C81.6895 215.104 81.9855 216.168 82.5775 216.936C83.1695 217.688 84.0255 218.064 85.1455 218.064C86.8415 218.064 87.8735 217.128 88.2415 215.256L89.3695 215.52Z" fill="white"/>
<path d="M103.217 219H99.9051V216.888C99.5691 217.592 99.0731 218.16 98.4171 218.592C97.7611 219.024 97.0011 219.24 96.1371 219.24C95.0811 219.24 94.2011 218.912 93.4971 218.256C92.7931 217.6 92.4411 216.544 92.4411 215.088V209.472H90.4731V208.344H93.7611V214.776C93.7611 215.992 94.0171 216.848 94.5291 217.344C95.0571 217.824 95.7211 218.064 96.5211 218.064C97.4811 218.064 98.2731 217.688 98.8971 216.936C99.5371 216.184 99.8731 215.424 99.9051 214.656V209.472H97.5531V208.344H101.225V217.896H103.217V219Z" fill="white"/>
<path d="M109.354 219H104.098V217.896H106.066V203.592H104.074V202.488H107.386V217.896H109.354V219Z" fill="white"/>
<path d="M118.395 216.24C118.075 218.24 116.995 219.24 115.155 219.24C114.115 219.24 113.331 218.936 112.803 218.328C112.291 217.72 112.035 216.904 112.035 215.88V209.472H110.283V208.344H112.035V204.888H113.355V208.344H117.603V209.472H113.355V215.736C113.355 216.44 113.499 217.008 113.787 217.44C114.075 217.856 114.579 218.064 115.299 218.064C115.763 218.064 116.179 217.928 116.547 217.656C116.915 217.368 117.187 216.784 117.363 215.904L118.395 216.24Z" fill="white"/>
<path d="M131.53 219H128.218V216.888C127.882 217.592 127.386 218.16 126.73 218.592C126.074 219.024 125.314 219.24 124.45 219.24C123.394 219.24 122.514 218.912 121.81 218.256C121.106 217.6 120.754 216.544 120.754 215.088V209.472H118.786V208.344H122.074V214.776C122.074 215.992 122.33 216.848 122.842 217.344C123.37 217.824 124.034 218.064 124.834 218.064C125.794 218.064 126.586 217.688 127.21 216.936C127.85 216.184 128.186 215.424 128.218 214.656V209.472H125.866V208.344H129.538V217.896H131.53V219Z" fill="white"/>
<path d="M138.53 208.152C139.282 208.152 139.866 208.336 140.282 208.704L140.666 211.08L139.562 211.224L139.154 209.4C138.914 209.336 138.642 209.304 138.338 209.304C137.634 209.304 137.058 209.6 136.61 210.192C136.162 210.784 135.938 211.536 135.938 212.448V217.896H138.554V219H132.626V217.896H134.618V209.472H132.602V208.344H135.866V210.24C136.074 209.648 136.426 209.152 136.922 208.752C137.418 208.352 137.954 208.152 138.53 208.152Z" fill="white"/>
<path d="M152.092 216.024C151.932 216.92 151.484 217.68 150.748 218.304C150.012 218.928 149.02 219.24 147.772 219.24C146.284 219.24 145.092 218.76 144.196 217.8C143.3 216.84 142.852 215.512 142.852 213.816C142.852 212.152 143.284 210.792 144.148 209.736C145.012 208.664 146.172 208.128 147.628 208.128C149.084 208.128 150.172 208.608 150.892 209.568C151.628 210.512 151.996 211.592 151.996 212.808C151.996 213.16 151.956 213.56 151.876 214.008H144.244C144.276 215.288 144.604 216.288 145.228 217.008C145.852 217.712 146.732 218.064 147.868 218.064C149.548 218.064 150.588 217.296 150.988 215.76L152.092 216.024ZM150.604 212.904C150.684 212.056 150.476 211.248 149.98 210.48C149.484 209.696 148.676 209.304 147.556 209.304C146.484 209.304 145.692 209.664 145.18 210.384C144.684 211.104 144.38 211.944 144.268 212.904H150.604Z" fill="white"/>
</g>
</svg>
